# xmcd
#
# Track frame offsets: 
#        150
#        19964
#        60384
#        78272
#        98848
#        117488
#        146417
#        167727
#        198956
#        219507
#        238562
#        267290
#        284325
#        298497
#        316752
#        335436
#
# Disc length: 4794 seconds
#
# Revision: 1
# Processed by: cddbd v1.5.2PL0 Copyright (c) Steve Scherf et al.
# Submitted via: ExactAudioCopy v1.0b3
#
DISCID=ec12b810
DTITLE=Various Artist - Akella Presents - Blues-Rock - vol.22  CD2  N
DTITLE=ew!
DYEAR=2013
DGENRE=Rock
TTITLE0=ROB ORLEMANS - Fuzzbox Boogie
TTITLE1=GOV'T MULE - Endless Parade
TTITLE2=LARRY MILLER - Still Aint Done With The Blues
TTITLE3=HANK DAVISON BAND - Face Of A Wanted Man
TTITLE4=SOUTHERN GENTLEMEN - Reflections
TTITLE5=GWYN ASHTON - Ball and Chain
TTITLE6=HARDBONE - Girls and Gasoline
TTITLE7=MICHAEL KATON - Need It Awful Dad
TTITLE8=ROB TOGNONI - Shakin' The Devil's Hand
TTITLE9=RHINO BUCKET - Bar Time
TTITLE10=BLINDSTONE - Sleepin' Alone
TTITLE11=MEZCALEROS - Breakdown Limousine
TTITLE12=WILD T and SPIRIT - It Ain't Where You're From
TTITLE13=AMERICAN BLUES BOX - Whiskey and Water
TTITLE14=BUDDAH HEADS - Train Train
TTITLE15=BIG GEORGE and The BUSINESS - Home Of The Wolf
EXTD=
EXTT0=
EXTT1=
EXTT2=
EXTT3=
EXTT4=
EXTT5=
EXTT6=
EXTT7=
EXTT8=
EXTT9=
EXTT10=
EXTT11=
EXTT12=
EXTT13=
EXTT14=
EXTT15=
PLAYORDER=
